<svg xmlns="http://www.w3.org/2000/svg" width="512" height="768" viewBox="0 0 512 768" shape-rendering="crispEdges"><defs><symbol id="down" viewBox="0 0 128 192"><rect fill="#35251f" x="46" y="39" width="12" height="3"/><rect fill="#35251f" x="70" y="39" width="12" height="3"/></symbol><symbol id="left" viewBox="0 0 128 192"><rect fill="#35251f" x="44" y="39" width="12" height="3"/></symbol><symbol id="right" viewBox="0 0 128 192"><rect fill="#35251f" x="72" y="39" width="12" height="3"/></symbol><symbol id="up" viewBox="0 0 128 192"></symbol></defs><g><use href="#down" x="0" y="0" width="128" height="192"/><use href="#down" x="128" y="0" width="128" height="192"/><use href="#down" x="256" y="0" width="128" height="192"/><use href="#down" x="384" y="0" width="128" height="192"/><use href="#left" x="0" y="192" width="128" height="192"/><use href="#left" x="128" y="192" width="128" height="192"/><use href="#left" x="256" y="192" width="128" height="192"/><use href="#left" x="384" y="192" width="128" height="192"/><use href="#right" x="0" y="384" width="128" height="192"/><use href="#right" x="128" y="384" width="128" height="192"/><use href="#right" x="256" y="384" width="128" height="192"/><use href="#right" x="384" y="384" width="128" height="192"/><use href="#up" x="0" y="576" width="128" height="192"/><use href="#up" x="128" y="576" width="128" height="192"/><use href="#up" x="256" y="576" width="128" height="192"/><use href="#up" x="384" y="576" width="128" height="192"/></g></svg>
