<svg xmlns="http://www.w3.org/2000/svg" width="512" height="768" viewBox="0 0 512 768" shape-rendering="crispEdges"><defs><symbol id="down" viewBox="0 0 128 192"><path fill="#a95f46" d="M40 58h3v7h4v4h5v3h24v-3h5v-4h4v-7h3v9h-4v5h-6v4H50v-4h-6v-5h-4z"/></symbol><symbol id="left" viewBox="0 0 128 192"><path fill="#a95f46" d="M37 58h3v9h5v5h7v3h16v3H50v-3h-8v-5h-5z"/></symbol><symbol id="right" viewBox="0 0 128 192"><path fill="#a95f46" d="M91 58h-3v9h-5v5h-7v3H60v3h18v-3h8v-5h5z"/></symbol><symbol id="up" viewBox="0 0 128 192"></symbol></defs><g><use href="#down" x="0" y="0" width="128" height="192"/><use href="#down" x="128" y="0" width="128" height="192"/><use href="#down" x="256" y="0" width="128" height="192"/><use href="#down" x="384" y="0" width="128" height="192"/><use href="#left" x="0" y="192" width="128" height="192"/><use href="#left" x="128" y="192" width="128" height="192"/><use href="#left" x="256" y="192" width="128" height="192"/><use href="#left" x="384" y="192" width="128" height="192"/><use href="#right" x="0" y="384" width="128" height="192"/><use href="#right" x="128" y="384" width="128" height="192"/><use href="#right" x="256" y="384" width="128" height="192"/><use href="#right" x="384" y="384" width="128" height="192"/><use href="#up" x="0" y="576" width="128" height="192"/><use href="#up" x="128" y="576" width="128" height="192"/><use href="#up" x="256" y="576" width="128" height="192"/><use href="#up" x="384" y="576" width="128" height="192"/></g></svg>
